<svg xmlns="http://www.w3.org/2000/svg" enable-background="new 0 0 24 24" viewBox="0 0 24 24" id="mastercard"><path d="M24,12c0-4.141-3.32-7.5-7.416-7.5c-1.52,0-2.931,0.461-4.105,1.252c0.06,0.052,0.12,0.099,0.165,0.152C14.4,7.438,15.405,9.662,15.405,12c0,2.336-1.001,4.558-2.748,6.1c-0.058,0.05-0.12,0.099-0.181,0.148c1.177,0.792,2.588,1.252,4.107,1.252C20.68,19.501,24,16.143,24,12z"></path><path d="M12,17.894c0.096-0.075,0.189-0.154,0.28-0.235c1.563-1.374,2.551-3.397,2.551-5.659c0-2.261-0.987-4.284-2.551-5.659C12.19,6.261,12.096,6.184,12,6.108c-0.096,0.076-0.189,0.152-0.28,0.234C10.156,7.716,9.169,9.74,9.169,12c0,2.261,0.987,4.284,2.551,5.659C11.81,17.74,11.905,17.819,12,17.894z"></path><path d="M7.417,19.5c1.517,0,2.93-0.46,4.107-1.252c-0.061-0.049-0.123-0.098-0.181-0.148c-1.747-1.538-2.748-3.762-2.748-6.1c0-2.338,1.005-4.562,2.761-6.097c0.045-0.053,0.105-0.1,0.165-0.152C10.347,4.961,8.934,4.5,7.416,4.5C3.32,4.5,0,7.858,0,12S3.32,19.501,7.417,19.5z"></path></svg>